<?xml version="1.0" encoding="UTF-8"?>
<svg id="Layer_1" data-name="Layer 1" xmlns="http://www.w3.org/2000/svg" viewBox="0 0 192 186.67">
  <defs>
    <style>
      .cls-1 {
        fill: none;
        stroke: #cfad44;
        stroke-miterlimit: 10;
      }

      .cls-2 {
        fill: #262521;
      }

      .cls-3 {
        fill: #fff;
      }

      .cls-4 {
        fill: #cfad44;
      }
    </style>
  </defs>
  <g>
    <rect class="cls-4" x="20.69" y="19.28" width="150.62" height="150.62" rx="26.55" ry="26.55"/>
    <rect class="cls-2" x="20.69" y="16.76" width="150.62" height="150.62" rx="26.55" ry="26.55"/>
  </g>
  <g>
    <path class="cls-3" d="M87.42,75.8c0-3.82,3.67-6.25,8.24-6.54.31-.02.62-.03.93-.03,5.53,0,9.8,3.23,9.8,7.51h14.87c0-12.27-10.93-21.53-25.41-21.88-14.09.33-25.01,9.01-25.01,22.3,0,24.4,36.6,19.5,36.6,30.76,0,4.06-4.59,6.98-10.12,6.98-.3,0-.6,0-.89-.02-4.15-.25-7.63-2.22-9.22-4.99-1.25-2.16-3.62-3.43-6.11-3.43h-11.41c0,12.58,11.25,22.47,26.55,22.82.29.02.58.02.87.02,15.12,0,26.91-9.18,26.91-23.26,0-25.03-36.6-18.87-36.6-30.24Z"/>
    <path class="cls-4" d="M85.7,75.8c0-4.07,4.17-6.57,9.18-6.57.26,0,.52.01.78.03,5.14.28,9.02,3.4,9.02,7.48h16.58c0-12.27-10.93-21.53-25.41-21.88-.29-.02-.58-.02-.87-.02-14.5,0-25.86,8.76-25.86,22.32,0,24.4,36.6,19.5,36.6,30.76,0,3.86-4.14,6.68-9.29,6.96-.27.01-.54.02-.82.02-4.55,0-8.41-2.04-10.12-5.01-1.25-2.16-3.61-3.43-6.11-3.43h-11.41c0,12.82,11.68,22.84,27.43,22.84.28,0,.56,0,.84-.02,14.71-.32,26.06-9.42,26.06-23.24,0-25.03-36.6-18.87-36.6-30.24Z"/>
  </g>
  <line class="cls-1" x1="20.69" y1="94.59" x2="171.31" y2="94.59"/>
</svg>