<?xml version="1.0" encoding="UTF-8"?>
<svg id="Layer_1" data-name="Layer 1" xmlns="http://www.w3.org/2000/svg" viewBox="0 0 305.35 306.67">
  <defs>
    <style>
      .cls-1 {
        fill: #262521;
      }

      .cls-2 {
        fill: #cfad44;
      }
    </style>
  </defs>
  <g>
    <path class="cls-1" d="M165.69,237.34c-8.72,12.29-28.3,11.94-45.39,1.22-.86-.57-1.79-1.22-2.64-1.79-14.51-10.36-22.23-25.59-20.94-38.88.86-9.72-3.79-19.16-11.72-24.8l-37.02-26.23v-63.4c0-23.73,19.23-42.96,42.89-42.96h42.24c-5.29,4.5-10.15,9.79-14.51,15.94-1.21,1.64-2.29,3.29-3.29,4.93-25.45,41.38-.57,79.62,23.09,111.5,19.73,26.45,38.6,48.53,27.3,64.47Z"/>
    <path class="cls-1" d="M276.4,166.43v63.26c0,23.73-19.23,42.89-42.89,42.89h-13.51c.93-1.22,1.86-2.43,2.79-3.72,25.3-35.6,13.22-67.9-5.5-95.99-23.3-34.81-57.04-63.18-42.81-83.27,9.22-12.94,28.16-11.51,44.17-.14.79.57,1.64,1.21,2.43,1.86,11.22,8.93,17.16,21.09,16.3,31.95-.79,9.29,3.79,18.16,11.36,23.59l23.16,16.37,4.5,3.22Z"/>
  </g>
  <path class="cls-2" d="M270.32,61.35c-.96-1.59-2.02-3.12-3.17-4.57,0,0,0-.01-.01-.01-3.47-4.41-7.81-8.11-12.76-10.87-6.17-3.44-13.29-5.4-20.86-5.4h-100.43c-5.29,4.5-10.16,9.8-14.51,15.94-1.16,1.65-2.25,3.28-3.25,4.91-25.48,41.39-.62,79.6,23.09,111.49,19.7,26.46,38.58,48.56,27.28,64.49-8.74,12.31-28.32,11.93-45.37,1.17-.89-.57-1.78-1.16-2.66-1.79-14.51-10.3-22.2-25.53-20.94-38.88.9-9.71-3.74-19.09-11.72-24.75l-37.03-26.27v125.78h172.06c.96-1.22,1.89-2.46,2.79-3.74,25.27-35.63,13.25-67.93-5.54-96.01-23.29-34.82-57-63.16-42.76-83.23,9.21-12.98,28.16-11.52,44.15-.19.82.59,1.63,1.22,2.41,1.86,11.26,8.95,17.19,21.06,16.29,31.99-.76,9.25,3.84,18.15,11.42,23.52l23.14,16.43,4.53,3.21v-83.03c0-8.07-2.24-15.61-6.12-22.06Z"/>
</svg>